<svg width="24" height="24" fill="none" xmlns="http://www.w3.org/2000/svg"><path d="M23.991 23.402 22.017 6.695c-.032-.27-.296-.478-.592-.478h-3.651V5.2C17.774 2.33 15.208 0 12.049 0 8.891 0 6.325 2.331 6.325 5.2v1.017h-3.75c-.296 0-.56.209-.593.478L.01 23.402c-.033.15.032.3.131.419.099.12.263.179.428.179h22.864c.165 0 .33-.06.428-.18.099-.119.164-.268.131-.418Zm-6.81-14.167c.297 0 .527.21.527.479s-.23.478-.526.478c-.297 0-.527-.21-.527-.478 0-.27.23-.479.526-.479ZM7.51 5.201c0-2.272 2.04-4.125 4.54-4.125s4.54 1.853 4.54 4.124v1.017H7.51V5.2Zm-.592 4.034c.296 0 .527.21.527.479s-.23.478-.527.478c-.296 0-.526-.21-.526-.478 0-.27.23-.479.526-.479ZM1.26 22.895 3.1 7.262h3.224v.986c-.658.21-1.119.777-1.119 1.435 0 .837.757 1.524 1.678 1.524.921 0 1.678-.688 1.678-1.524 0-.658-.46-1.226-1.118-1.435v-.986h9.08v.986c-.658.21-1.119.777-1.119 1.435 0 .837.757 1.524 1.678 1.524.92 0 1.678-.688 1.678-1.524 0-.658-.461-1.226-1.119-1.435v-.986h3.356l1.842 15.631H1.259Z" fill="#272727"/></svg>