<svg width="26" height="24" fill="none" xmlns="http://www.w3.org/2000/svg"><path d="M19.094 0c-1.411 0-2.705.467-3.845 1.39-1.093.883-1.82 2.01-2.249 2.828-.428-.819-1.156-1.945-2.25-2.829C9.61.467 8.318 0 6.907 0 2.97 0 0 3.367 0 7.833c0 4.824 3.704 8.124 9.312 13.12.952.85 2.031 1.811 3.153 2.837a.791.791 0 0 0 1.07 0 325.662 325.662 0 0 1 3.154-2.837C22.296 15.957 26 12.657 26 7.833 26 3.367 23.03 0 19.094 0Z" fill="#fff"/><path d="M24.103 2.358C22.821.838 21.042 0 19.093 0c-2.739 0-4.473 1.71-5.446 3.144-.252.372-.467.745-.647 1.096a10.49 10.49 0 0 0-.647-1.096C11.38 1.71 9.646 0 6.906 0 4.958 0 3.18.837 1.896 2.358.675 3.808 0 5.75 0 7.827c0 2.26.845 4.363 2.658 6.616 1.62 2.014 3.953 4.09 6.653 6.495 1.006.896 2.046 1.822 3.154 2.835l.033.03a.74.74 0 0 0 1.004 0l.033-.03c1.108-1.013 2.148-1.94 3.154-2.835 2.7-2.404 5.032-4.48 6.653-6.495C25.155 12.19 26 10.087 26 7.827c0-2.077-.674-4.019-1.897-5.47Zm-8.402 17.368c-.867.772-1.76 1.567-2.701 2.422-.941-.855-1.834-1.65-2.701-2.422-5.285-4.705-8.776-7.813-8.776-11.899 0-1.689.539-3.258 1.517-4.417.989-1.172 2.362-1.818 3.866-1.818 2.089 0 3.439 1.344 4.204 2.472a9.619 9.619 0 0 1 1.166 2.423c.102.327.394.549.724.549.33 0 .622-.222.724-.55a9.62 9.62 0 0 1 1.166-2.422c.765-1.128 2.115-2.472 4.204-2.472 1.504 0 2.877.646 3.866 1.818.978 1.16 1.517 2.728 1.517 4.417 0 4.086-3.491 7.194-8.776 11.9Z" fill="#272727"/></svg>