<svg width="42" height="42" fill="none" xmlns="http://www.w3.org/2000/svg"><path d="M25.02 21a4.02 4.02 0 1 1-8.04 0 4.02 4.02 0 0 1 8.04 0Z" fill="#fff"/><path d="M30.4 13.888a3.736 3.736 0 0 0-.902-1.386 3.734 3.734 0 0 0-1.386-.902c-.425-.165-1.063-.362-2.24-.415-1.271-.058-1.652-.07-4.872-.07-3.22 0-3.601.011-4.873.07-1.175.053-1.814.25-2.239.415a3.73 3.73 0 0 0-1.386.902c-.4.389-.709.862-.903 1.386-.165.425-.361 1.064-.415 2.24-.058 1.271-.07 1.652-.07 4.872 0 3.22.012 3.601.07 4.873.054 1.176.25 1.814.415 2.239.194.524.502.998.902 1.387.39.4.863.708 1.387.902.425.165 1.063.361 2.24.415 1.27.058 1.652.07 4.872.07 3.22 0 3.601-.012 4.872-.07 1.176-.054 1.815-.25 2.24-.415a3.993 3.993 0 0 0 2.288-2.289c.165-.425.362-1.063.416-2.239.058-1.272.07-1.653.07-4.873s-.012-3.601-.07-4.872c-.054-1.176-.25-1.815-.416-2.24ZM21 27.192a6.192 6.192 0 1 1 0-12.384 6.192 6.192 0 0 1 0 12.384Zm6.437-11.182a1.447 1.447 0 1 1 0-2.894 1.447 1.447 0 0 1 0 2.894Z" fill="#fff"/><path d="M21 0C9.404 0 0 9.404 0 21s9.404 21 21 21 21-9.404 21-21S32.596 0 21 0Zm11.986 25.971c-.058 1.284-.263 2.16-.56 2.928a6.166 6.166 0 0 1-3.527 3.526c-.767.298-1.644.502-2.927.56-1.286.06-1.697.074-4.972.074-3.275 0-3.685-.014-4.971-.073-1.284-.059-2.16-.263-2.927-.56a5.908 5.908 0 0 1-2.136-1.392A5.91 5.91 0 0 1 9.575 28.9c-.298-.767-.502-1.644-.56-2.927-.06-1.286-.074-1.697-.074-4.972 0-3.275.014-3.686.073-4.971.058-1.284.262-2.16.56-2.928a5.908 5.908 0 0 1 1.392-2.135A5.907 5.907 0 0 1 13.1 9.575c.767-.298 1.644-.502 2.928-.56 1.285-.06 1.696-.074 4.971-.074 3.275 0 3.686.015 4.971.073 1.284.059 2.16.263 2.928.56a5.912 5.912 0 0 1 2.136 1.392 5.909 5.909 0 0 1 1.39 2.135c.299.767.503 1.644.561 2.928.059 1.285.073 1.696.073 4.971 0 3.275-.014 3.686-.073 4.971Z" fill="#fff"/></svg>