<svg width="52" height="45" fill="none" xmlns="http://www.w3.org/2000/svg"><g filter="url(#a)"><path d="m25.566 6.752.434.754.433-.754c.705-1.227 1.895-2.9 3.67-4.207l-.297-.403.297.403C31.947 1.186 34.032.5 36.313.5 42.684.5 47.5 5.452 47.5 12.075c0 3.557-1.492 6.576-4.198 9.687-2.718 3.124-6.618 6.292-11.374 10.153l.315.388-.315-.388a536.348 536.348 0 0 0-5.343 4.377.914.914 0 0 1-.585.208.914.914 0 0 1-.585-.208c-1.9-1.583-3.728-3.066-5.339-4.374l-.003-.002c-4.756-3.861-8.657-7.03-11.375-10.154-2.706-3.11-4.198-6.13-4.198-9.687C4.5 5.452 9.316.5 15.688.5c2.28 0 4.365.686 6.209 2.045l.297-.403-.297.403c1.775 1.307 2.965 2.98 3.67 4.207Z" fill="#fff" stroke="#4D4D4D"/></g><defs><filter id="a" x="0" y="0" width="52" height="45" filterUnits="userSpaceOnUse" color-interpolation-filters="sRGB"><feFlood flood-opacity="0" result="BackgroundImageFix"/><feColorMatrix in="SourceAlpha" values="0 0 0 0 0 0 0 0 0 0 0 0 0 0 0 0 0 0 127 0" result="hardAlpha"/><feOffset dy="4"/><feGaussianBlur stdDeviation="2"/><feComposite in2="hardAlpha" operator="out"/><feColorMatrix values="0 0 0 0 0 0 0 0 0 0 0 0 0 0 0 0 0 0 0.25 0"/><feBlend in2="BackgroundImageFix" result="effect1_dropShadow_11_695"/><feBlend in="SourceGraphic" in2="effect1_dropShadow_11_695" result="shape"/></filter></defs></svg>