<svg width="22" height="24" fill="none" xmlns="http://www.w3.org/2000/svg"><mask id="a" fill="#fff"><path d="M10.834 11.56c1.745 0 3.255-.569 4.49-1.693 1.235-1.123 1.86-2.498 1.86-4.087 0-1.588-.625-2.963-1.86-4.087C14.09.57 12.58 0 10.834 0c-1.746 0-3.256.57-4.49 1.693-1.236 1.124-1.862 2.5-1.862 4.087 0 1.589.626 2.964 1.861 4.088 1.235 1.123 2.746 1.693 4.49 1.693ZM7.436 2.689c.947-.862 2.059-1.282 3.398-1.282 1.338 0 2.45.42 3.398 1.282.947.862 1.408 1.874 1.408 3.092 0 1.219-.461 2.23-1.408 3.093-.948.862-2.06 1.282-3.398 1.282-1.339 0-2.45-.42-3.398-1.282-.948-.862-1.408-1.874-1.408-3.093 0-1.218.46-2.23 1.408-3.092ZM21.947 18.455a13.044 13.044 0 0 0-.214-1.517 11.061 11.061 0 0 0-.41-1.524 7.208 7.208 0 0 0-.689-1.422 5.456 5.456 0 0 0-1.038-1.232 4.663 4.663 0 0 0-1.492-.853 5.609 5.609 0 0 0-1.904-.314c-.27 0-.53.1-1.032.399-.31.183-.672.396-1.076.63-.345.2-.813.389-1.391.559a6.024 6.024 0 0 1-1.702.25 6.029 6.029 0 0 1-1.702-.25c-.577-.17-1.045-.358-1.39-.558-.4-.233-.762-.445-1.076-.632-.503-.297-.763-.398-1.032-.398-.686 0-1.326.106-1.904.314a4.658 4.658 0 0 0-1.492.853 5.455 5.455 0 0 0-1.038 1.232 7.222 7.222 0 0 0-.689 1.422c-.165.469-.303.982-.41 1.524a12.969 12.969 0 0 0-.213 1.517A18.7 18.7 0 0 0 0 19.873c0 1.252.438 2.267 1.3 3.015C2.153 23.626 3.28 24 4.652 24h12.697c1.37 0 2.498-.374 3.35-1.112.863-.748 1.301-1.762 1.301-3.016 0-.483-.018-.96-.053-1.417Zm-2.313 3.414c-.563.487-1.31.725-2.286.725H4.652c-.976 0-1.723-.238-2.286-.725-.552-.479-.82-1.132-.82-1.996 0-.45.016-.894.048-1.32.032-.419.097-.878.193-1.366.095-.482.217-.935.36-1.344a5.88 5.88 0 0 1 .561-1.157c.223-.357.48-.663.763-.91.265-.23.6-.42.993-.562a3.865 3.865 0 0 1 1.217-.213c.054.026.15.076.306.169.318.188.684.403 1.089.638.456.265 1.044.504 1.746.71.718.212 1.45.32 2.177.32.727 0 1.46-.108 2.177-.32.703-.206 1.291-.445 1.748-.71.414-.241.77-.45 1.088-.638.156-.093.252-.143.306-.17.444.012.853.083 1.218.214.393.142.727.331.992.562.283.247.54.553.763.91.234.375.423.764.56 1.156.145.41.266.863.361 1.345.096.489.161.948.193 1.366.033.424.05.869.05 1.32 0 .864-.269 1.517-.821 1.996Z"/></mask><path d="M10.834 11.56c1.745 0 3.255-.569 4.49-1.693 1.235-1.123 1.86-2.498 1.86-4.087 0-1.588-.625-2.963-1.86-4.087C14.09.57 12.58 0 10.834 0c-1.746 0-3.256.57-4.49 1.693-1.236 1.124-1.862 2.5-1.862 4.087 0 1.589.626 2.964 1.861 4.088 1.235 1.123 2.746 1.693 4.49 1.693ZM7.436 2.689c.947-.862 2.059-1.282 3.398-1.282 1.338 0 2.45.42 3.398 1.282.947.862 1.408 1.874 1.408 3.092 0 1.219-.461 2.23-1.408 3.093-.948.862-2.06 1.282-3.398 1.282-1.339 0-2.45-.42-3.398-1.282-.948-.862-1.408-1.874-1.408-3.093 0-1.218.46-2.23 1.408-3.092ZM21.947 18.455a13.044 13.044 0 0 0-.214-1.517 11.061 11.061 0 0 0-.41-1.524 7.208 7.208 0 0 0-.689-1.422 5.456 5.456 0 0 0-1.038-1.232 4.663 4.663 0 0 0-1.492-.853 5.609 5.609 0 0 0-1.904-.314c-.27 0-.53.1-1.032.399-.31.183-.672.396-1.076.63-.345.2-.813.389-1.391.559a6.024 6.024 0 0 1-1.702.25 6.029 6.029 0 0 1-1.702-.25c-.577-.17-1.045-.358-1.39-.558-.4-.233-.762-.445-1.076-.632-.503-.297-.763-.398-1.032-.398-.686 0-1.326.106-1.904.314a4.658 4.658 0 0 0-1.492.853 5.455 5.455 0 0 0-1.038 1.232 7.222 7.222 0 0 0-.689 1.422c-.165.469-.303.982-.41 1.524a12.969 12.969 0 0 0-.213 1.517A18.7 18.7 0 0 0 0 19.873c0 1.252.438 2.267 1.3 3.015C2.153 23.626 3.28 24 4.652 24h12.697c1.37 0 2.498-.374 3.35-1.112.863-.748 1.301-1.762 1.301-3.016 0-.483-.018-.96-.053-1.417Zm-2.313 3.414c-.563.487-1.31.725-2.286.725H4.652c-.976 0-1.723-.238-2.286-.725-.552-.479-.82-1.132-.82-1.996 0-.45.016-.894.048-1.32.032-.419.097-.878.193-1.366.095-.482.217-.935.36-1.344a5.88 5.88 0 0 1 .561-1.157c.223-.357.48-.663.763-.91.265-.23.6-.42.993-.562a3.865 3.865 0 0 1 1.217-.213c.054.026.15.076.306.169.318.188.684.403 1.089.638.456.265 1.044.504 1.746.71.718.212 1.45.32 2.177.32.727 0 1.46-.108 2.177-.32.703-.206 1.291-.445 1.748-.71.414-.241.77-.45 1.088-.638.156-.093.252-.143.306-.17.444.012.853.083 1.218.214.393.142.727.331.992.562.283.247.54.553.763.91.234.375.423.764.56 1.156.145.41.266.863.361 1.345.096.489.161.948.193 1.366.033.424.05.869.05 1.32 0 .864-.269 1.517-.821 1.996Z" fill="#272727"/><path d="m15.324 9.867.674.74-.674-.74Zm0-8.174.673-.74-.673.74Zm-8.98 8.175-.674.74.673-.74Zm1.092-7.18-.673-.74.673.74Zm6.796 0 .673-.74-.673.74Zm0 6.185.673.74-.673-.74Zm-6.796 0-.673.74.673-.74Zm14.51 9.582-.996.076.997-.076Zm-.213-1.517.981-.193-.981.193Zm-.41-1.524.944-.332-.944.332Zm-.689-1.422-.848.53.848-.53Zm-1.038-1.232-.657.754.657-.754Zm-1.492-.853.34-.94v-.001l-.34.94Zm-2.936.085-.51-.86.51.86Zm-1.076.63.502.866.001-.001-.503-.864Zm-1.391.559-.282-.96.282.96Zm-3.404 0 .283-.96-.283.96Zm-1.39-.558-.503.864.503-.864Zm-1.076-.632-.51.86.51-.86Zm-2.936-.084.339.94-.34-.94Zm-1.492.853-.657-.754.657.754Zm-1.038 1.232.848.53v-.001l-.848-.53Zm-.689 1.422-.943-.332.943.332Zm-.41 1.524.981.194-.98-.194Zm-.213 1.517.997.077-.997-.077ZM1.3 22.888l-.655.755.655-.755Zm19.4 0 .654.756-.655-.756Zm1.3-3.016h1-1Zm-2.366 1.997-.655-.756.655.756Zm-17.268 0-.655.756.655-.756Zm-.772-3.316.997.076-.997-.076Zm.193-1.366.981.194-.98-.194Zm.36-1.344-.943-.332.944.332Zm.561-1.157-.848-.53.848.53Zm.763-.91.657.754-.657-.754Zm.993-.562.338.941-.338-.94Zm1.217-.213.435-.9-.218-.106-.242.006.025 1Zm.306.169-.51.86.51-.86Zm1.089.638-.503.865.503-.865Zm1.746.71.283-.959-.283.96Zm4.354 0-.282-.959.282.96Zm1.748-.71.502.865-.502-.865Zm1.088-.638-.51-.86.51.86Zm.306-.17.024-.999-.241-.006-.218.106.435.9Zm1.218.214.339-.94-.34.94Zm.992.562-.657.754.657-.754Zm.763.91-.848.53.848-.53Zm.56 1.156.944-.331-.943.332Zm.361 1.345.981-.193-.98.193Zm.193 1.366-.997.076.997-.076Zm.05 1.32h1-1Zm-9.621-7.312c1.981 0 3.736-.654 5.164-1.954l-1.347-1.48c-1.041.949-2.309 1.434-3.817 1.434v2Zm5.164-1.954c1.43-1.302 2.187-2.94 2.187-4.827h-2c0 1.291-.495 2.403-1.534 3.348l1.347 1.479Zm2.187-4.827c0-1.885-.757-3.524-2.188-4.826l-1.346 1.479c1.039.945 1.534 2.057 1.534 3.347h2ZM15.997.954C14.57-.346 12.815-1 10.834-1v2c1.508 0 2.775.485 3.817 1.433l1.346-1.48ZM10.834-1C8.852-1 7.098-.346 5.67.954l1.346 1.479C8.058 1.485 9.325 1 10.834 1v-2ZM5.67.954C4.24 2.256 3.482 3.894 3.482 5.78h2c0-1.29.496-2.402 1.534-3.347L5.67.953ZM3.482 5.78c0 1.886.757 3.525 2.188 4.827l1.346-1.479C5.978 8.183 5.482 7.071 5.482 5.78h-2Zm2.188 4.827c1.428 1.3 3.182 1.954 5.164 1.954v-2c-1.508 0-2.776-.485-3.818-1.433l-1.346 1.48Zm2.439-7.18c.754-.686 1.622-1.02 2.725-1.02v-2c-1.576 0-2.93.503-4.071 1.541l1.346 1.48Zm2.725-1.02c1.102 0 1.97.334 2.725 1.02l1.346-1.479C13.764.91 12.409.406 10.834.406v2Zm2.724 1.02c.752.684 1.082 1.432 1.082 2.353h2c0-1.516-.592-2.79-1.735-3.832l-1.347 1.48ZM14.64 5.78c0 .921-.33 1.67-1.082 2.353l1.347 1.48c1.143-1.041 1.735-2.316 1.735-3.833h-2Zm-1.082 2.353c-.754.687-1.622 1.021-2.724 1.021v2c1.575 0 2.93-.503 4.07-1.542L13.56 8.133Zm-2.724 1.021c-1.102 0-1.97-.334-2.725-1.02L6.763 9.612c1.14 1.037 2.495 1.542 4.07 1.542v-2Zm-2.725-1.02C7.358 7.45 7.028 6.701 7.028 5.78h-2c0 1.517.591 2.792 1.735 3.833l1.346-1.48ZM7.028 5.78c0-.92.33-1.669 1.081-2.353L6.763 1.948C5.619 2.99 5.028 4.264 5.028 5.78h2ZM22.944 18.38a14.07 14.07 0 0 0-.23-1.634l-1.962.386c.1.507.165.978.198 1.4l1.994-.152Zm-.23-1.634a12.067 12.067 0 0 0-.447-1.663l-1.887.663c.147.42.273.886.372 1.387l1.962-.387Zm-.447-1.663a8.213 8.213 0 0 0-.785-1.62l-1.696 1.06c.25.399.449.811.594 1.224l1.887-.664Zm-.784-1.62a6.45 6.45 0 0 0-1.23-1.456l-1.314 1.508c.312.271.598.608.847 1.007l1.697-1.059Zm-1.23-1.456a5.66 5.66 0 0 0-1.81-1.04l-.678 1.882c.48.172.87.4 1.174.666l1.314-1.508Zm-1.81-1.04a6.607 6.607 0 0 0-2.243-.373v2c.583 0 1.108.09 1.566.255l.677-1.882Zm-2.243-.373c-.562 0-1.027.233-1.542.538l1.02 1.72c.237-.14.37-.205.453-.238a.392.392 0 0 1 .062-.02h.007v-2Zm-1.543.539c-.306.181-.665.392-1.067.626l1.005 1.729c.406-.236.77-.45 1.083-.636l-1.02-1.72Zm-1.066.626c-.251.145-.636.306-1.172.463l.564 1.919c.62-.182 1.171-.397 1.611-.652l-1.003-1.73Zm-1.172.463c-.476.14-.954.21-1.42.21v2c.665 0 1.333-.1 1.984-.291l-.565-1.919Zm-1.42.21a5.03 5.03 0 0 1-1.42-.21l-.564 1.919a7.03 7.03 0 0 0 1.984.29v-2Zm-1.42-.21c-.535-.157-.92-.318-1.17-.463l-1.004 1.73c.44.255.991.47 1.61.652l.564-1.919Zm-1.17-.463c-.398-.231-.757-.442-1.068-.627l-1.02 1.72c.317.188.681.402 1.083.636l1.006-1.729Zm-1.068-.627c-.515-.305-.98-.538-1.542-.538v2a3.327 3.327 0 0 1 .522.258l1.02-1.72Zm-1.542-.538c-.788 0-1.545.121-2.243.373l.678 1.882a4.605 4.605 0 0 1 1.565-.255v-2Zm-2.243.373a5.655 5.655 0 0 0-1.81 1.04l1.313 1.508a3.663 3.663 0 0 1 1.175-.666l-.678-1.882Zm-1.81 1.04a6.454 6.454 0 0 0-1.23 1.456l1.697 1.059c.249-.399.535-.736.846-1.007l-1.313-1.508Zm-1.23 1.456a8.218 8.218 0 0 0-.783 1.62l1.886.664a6.22 6.22 0 0 1 .594-1.225L.516 13.462Zm-.783 1.62a12.092 12.092 0 0 0-.448 1.663l1.962.387c.1-.501.225-.968.372-1.387l-1.886-.663Zm-.448 1.663c-.112.57-.19 1.12-.23 1.635l1.995.151c.032-.423.098-.894.197-1.399l-1.962-.387Zm-.23 1.634A19.7 19.7 0 0 0-1 19.873h2c0-.458.017-.91.05-1.341l-1.994-.153ZM-1 19.873c0 1.51.54 2.813 1.645 3.77l1.31-1.511c-.62-.538-.955-1.265-.955-2.26h-2Zm1.646 3.77C1.716 24.572 3.094 25 4.652 25v-2c-1.186 0-2.064-.32-2.697-.868l-1.31 1.511ZM4.652 25h12.697v-2H4.652v2Zm12.697 0c1.557 0 2.934-.429 4.005-1.356l-1.31-1.512c-.633.548-1.51.868-2.695.868v2Zm4.005-1.356c1.105-.958 1.646-2.26 1.646-3.772h-2c0 .995-.335 1.722-.955 2.26l1.309 1.512ZM23 19.872c0-.508-.019-1.01-.056-1.494l-1.994.154c.033.43.05.881.05 1.34h2Zm-4.02 1.24c-.332.288-.822.482-1.632.482v2c1.14 0 2.146-.281 2.94-.97l-1.309-1.511Zm-1.632.482H4.652v2h12.696v-2Zm-12.696 0c-.81 0-1.3-.194-1.631-.481l-1.31 1.512c.795.688 1.8.969 2.94.969v-2Zm-1.631-.481c-.293-.253-.476-.607-.476-1.24h-2c0 1.096.354 2.048 1.166 2.752l1.31-1.512Zm-.476-1.24c0-.426.016-.845.046-1.244l-1.994-.153c-.035.454-.052.923-.052 1.397h2Zm.046-1.245c.029-.372.087-.791.177-1.247l-1.962-.388c-.102.52-.174 1.02-.209 1.484l1.994.151Zm.177-1.247c.088-.442.197-.848.323-1.207l-1.887-.663c-.162.46-.295.96-.398 1.482l1.962.388Zm.323-1.206c.112-.32.268-.643.465-.96L1.86 14.158c-.27.433-.492.888-.656 1.354l1.887.664Zm.465-.959a3.04 3.04 0 0 1 .572-.686l-1.314-1.508a5.04 5.04 0 0 0-.954 1.134l1.696 1.06Zm.572-.686c.156-.135.376-.267.674-.375l-.677-1.881a4.091 4.091 0 0 0-1.31.748l1.313 1.508Zm.675-.375c.249-.09.55-.146.902-.154l-.049-2c-.535.013-1.053.1-1.531.273l.678 1.881Zm.442-.254c.024.011.095.047.232.129l1.02-1.72a5.175 5.175 0 0 0-.38-.21l-.872 1.801Zm.232.129c.32.19.69.406 1.096.643l1.005-1.73c-.402-.233-.766-.447-1.08-.633l-1.021 1.72Zm1.097.643c.546.317 1.214.584 1.966.805l.564-1.919c-.653-.192-1.16-.403-1.526-.616l-1.004 1.73Zm1.966.805c.807.237 1.634.36 2.46.36v-2a6.71 6.71 0 0 1-1.895-.279l-.565 1.919Zm2.46.36a8.71 8.71 0 0 0 2.459-.36l-.565-1.918a6.714 6.714 0 0 1-1.895.277v2Zm2.459-.36c.752-.221 1.42-.488 1.967-.805l-1.004-1.73c-.367.213-.874.424-1.528.616l.565 1.92Zm1.968-.806c.416-.242.774-.452 1.095-.642l-1.02-1.72c-.315.186-.668.394-1.081.634l1.006 1.728Zm1.094-.642c.139-.082.21-.118.233-.129l-.871-1.8a5.245 5.245 0 0 0-.381.208l1.02 1.721Zm-.227-.03c.352.01.653.066.903.155l.677-1.881A4.864 4.864 0 0 0 16.343 12l-.05 2Zm.903.155c.298.108.518.24.674.375l1.314-1.508a4.095 4.095 0 0 0-1.31-.748l-.678 1.881Zm.674.375c.2.175.395.402.572.686l1.696-1.059a5.03 5.03 0 0 0-.954-1.135L17.87 14.53Zm.572.686c.197.316.353.64.465.958l1.887-.663a6.855 6.855 0 0 0-.656-1.354l-1.696 1.06Zm.465.958c.127.36.236.765.323 1.206l1.962-.387a10.749 10.749 0 0 0-.398-1.482l-1.887.663Zm.323 1.206c.09.457.149.878.177 1.249l1.994-.152a12.787 12.787 0 0 0-.209-1.483l-1.962.386Zm.177 1.25c.03.397.046.816.047 1.243h2c0-.476-.018-.945-.053-1.397l-1.994.154Zm.047 1.242c0 .634-.184.988-.476 1.24l1.31 1.513c.812-.704 1.165-1.656 1.166-2.752h-2Z" fill="#000" mask="url(#a)"/></svg>