<svg width="24" height="24" fill="none" xmlns="http://www.w3.org/2000/svg"><path d="M3.018 3.018A10.237 10.237 0 0 0 0 10.304c0 2.753 1.072 5.34 3.018 7.286a10.237 10.237 0 0 0 7.286 3.019c2.517 0 4.895-.897 6.772-2.538l5.722 5.723a.704.704 0 1 0 .996-.995l-5.723-5.723a10.228 10.228 0 0 0 2.538-6.772c0-2.752-1.072-5.34-3.019-7.286A10.237 10.237 0 0 0 10.304 0c-2.752 0-5.34 1.072-7.286 3.018Zm13.577.995c3.469 3.47 3.469 9.113 0 12.582-3.469 3.469-9.113 3.469-12.581 0a8.868 8.868 0 0 1-2.602-6.29 8.87 8.87 0 0 1 2.602-6.292c3.468-3.468 9.112-3.468 12.581 0Z" fill="#272727"/></svg>