<svg width="42" height="42" fill="none" xmlns="http://www.w3.org/2000/svg"><path d="M21 0C9.402 0 0 9.402 0 21s9.402 21 21 21 21-9.402 21-21S32.598 0 21 0Zm10.652 23.271c.98.956 2.015 1.856 2.893 2.91.39.467.756.95 1.036 1.493.398.773.038 1.622-.654 1.668h-4.302c-1.112.091-1.996-.357-2.741-1.117-.595-.605-1.148-1.252-1.72-1.878a4.027 4.027 0 0 0-.775-.689c-.587-.382-1.096-.265-1.433.348-.342.623-.42 1.314-.453 2.008-.047 1.015-.352 1.28-1.37 1.328-2.175.101-4.24-.229-6.157-1.325-1.692-.967-3.002-2.332-4.143-3.878-2.222-3.013-3.924-6.32-5.453-9.721-.344-.766-.093-1.176.752-1.192 1.405-.027 2.809-.024 4.213-.001.571.009.95.336 1.17.875.758 1.867 1.688 3.643 2.854 5.29.31.44.627.877 1.08 1.186.497.342.877.23 1.112-.327.15-.354.216-.732.248-1.11.112-1.299.125-2.596-.068-3.89-.12-.808-.575-1.33-1.382-1.484-.41-.078-.35-.23-.15-.464.346-.406.67-.657 1.32-.657h4.861c.766.15.938.493 1.042 1.265l.004 5.402c-.009.299.15 1.184.686 1.38.43.141.714-.204.97-.476 1.166-1.237 1.997-2.697 2.74-4.208.329-.666.612-1.356.887-2.047.204-.51.522-.762 1.1-.753l4.68.005c.138 0 .278.002.414.025.79.135 1.006.474.761 1.244-.384 1.21-1.13 2.216-1.86 3.226-.782 1.081-1.616 2.124-2.39 3.21-.711.993-.655 1.492.228 2.354Z" fill="#fff"/></svg>