<svg width="52" height="45" viewBox="0 0 52 45" fill="none" xmlns="http://www.w3.org/2000/svg">
<g filter="url(#filter0_d_11_695)">
<path d="M25.5664 6.75156L26 7.50627L26.4335 6.75157C27.1381 5.52511 28.3279 3.85225 30.103 2.54463L29.8064 2.14207L30.103 2.54463C31.9469 1.18629 34.032 0.5 36.3125 0.5C42.684 0.5 47.5 5.45185 47.5 12.0753C47.5 15.6321 46.0084 18.6514 43.3024 21.7616C40.584 24.8862 36.6839 28.0541 31.9276 31.9149L32.2428 32.3031L31.9276 31.9149L31.9273 31.9152C30.3152 33.2238 28.4864 34.7084 26.5851 36.2922L26.5849 36.2924C26.4268 36.4242 26.2194 36.5 26 36.5C25.7806 36.5 25.5733 36.4242 25.4152 36.2924L25.4149 36.2922C23.5148 34.7094 21.6869 33.2256 20.0764 31.9182L20.0734 31.9158L20.0734 31.9157C15.3166 28.0545 11.4163 24.8864 8.6977 21.7617C5.9916 18.6513 4.5 15.6321 4.5 12.0753C4.5 5.45185 9.31599 0.5 15.6875 0.5C17.968 0.5 20.0531 1.18629 21.897 2.54463L22.1936 2.14207L21.897 2.54463C23.6721 3.85225 24.8619 5.52503 25.5664 6.75156Z" fill="white" stroke="#4D4D4D"/>
</g>
<defs>
<filter id="filter0_d_11_695" x="0" y="0" width="52" height="45" filterUnits="userSpaceOnUse" color-interpolation-filters="sRGB">
<feFlood flood-opacity="0" result="BackgroundImageFix"/>
<feColorMatrix in="SourceAlpha" type="matrix" values="0 0 0 0 0 0 0 0 0 0 0 0 0 0 0 0 0 0 127 0" result="hardAlpha"/>
<feOffset dy="4"/>
<feGaussianBlur stdDeviation="2"/>
<feComposite in2="hardAlpha" operator="out"/>
<feColorMatrix type="matrix" values="0 0 0 0 0 0 0 0 0 0 0 0 0 0 0 0 0 0 0.25 0"/>
<feBlend mode="normal" in2="BackgroundImageFix" result="effect1_dropShadow_11_695"/>
<feBlend mode="normal" in="SourceGraphic" in2="effect1_dropShadow_11_695" result="shape"/>
</filter>
</defs>
</svg>
